<svg width="24" height="25" viewBox="0 0 24 25" fill="none" xmlns="http://www.w3.org/2000/svg">
<path d="M12 3.06235C15.1807 3.06235 15.6145 3.06235 16.9157 3.06235C18.0723 3.06235 18.6506 3.35151 19.0843 3.49609C19.6627 3.78524 20.0964 3.92982 20.5301 4.36356C20.9639 4.79729 21.253 5.23103 21.3976 5.80934C21.5422 6.24308 21.6867 6.82139 21.8313 7.97802C21.8313 9.27922 21.8313 9.56838 21.8313 12.8937C21.8313 16.219 21.8313 16.5081 21.8313 17.8093C21.8313 18.966 21.5422 19.5443 21.3976 19.978C21.1084 20.5563 20.9639 20.9901 20.5301 21.4238C20.0964 21.8575 19.6627 22.1467 19.0843 22.2913C18.6506 22.4358 18.0723 22.5804 16.9157 22.725C15.6145 22.725 15.3253 22.725 12 22.725C8.6747 22.725 8.38554 22.725 7.08434 22.725C5.92771 22.725 5.3494 22.4358 4.91566 22.2913C4.33735 22.0021 3.90362 21.8575 3.46988 21.4238C3.03615 20.9901 2.74699 20.5563 2.60241 19.978C2.45783 19.5443 2.31325 18.966 2.16867 17.8093C2.16867 16.5081 2.16867 16.219 2.16867 12.8937C2.16867 9.56838 2.16867 9.27922 2.16867 7.97802C2.16867 6.82139 2.45783 6.24308 2.60241 5.80934C2.89157 5.23103 3.03615 4.79729 3.46988 4.36356C3.90362 3.92982 4.33735 3.64067 4.91566 3.49609C5.3494 3.35151 5.92771 3.20693 7.08434 3.06235C8.38554 3.06235 8.81928 3.06235 12 3.06235ZM12 0.893677C8.6747 0.893677 8.38554 0.893677 7.08434 0.893677C5.78313 0.893677 4.91566 1.18283 4.19277 1.47199C3.46988 1.76115 2.74699 2.19488 2.0241 2.91777C1.30121 3.64067 1.01205 4.21898 0.578314 5.08645C0.289157 5.80934 0.144578 6.67681 0 7.97802C0 9.27922 0 9.71296 0 12.8937C0 16.219 0 16.5081 0 17.8093C0 19.1105 0.289157 19.978 0.578314 20.7009C0.867471 21.4238 1.30121 22.1467 2.0241 22.8696C2.74699 23.5925 3.3253 23.8816 4.19277 24.3154C4.91566 24.6045 5.78313 24.7491 7.08434 24.8937C8.38554 24.8937 8.81928 24.8937 12 24.8937C15.1807 24.8937 15.6145 24.8937 16.9157 24.8937C18.2169 24.8937 19.0843 24.6045 19.8072 24.3154C20.5301 24.0262 21.253 23.5925 21.9759 22.8696C22.6988 22.1467 22.988 21.5684 23.4217 20.7009C23.7108 19.978 23.8554 19.1105 24 17.8093C24 16.5081 24 16.0744 24 12.8937C24 9.71296 24 9.27922 24 7.97802C24 6.67681 23.7108 5.80934 23.4217 5.08645C23.1325 4.36356 22.6988 3.64067 21.9759 2.91777C21.253 2.19488 20.6747 1.90573 19.8072 1.47199C19.0843 1.18283 18.2169 1.03826 16.9157 0.893677C15.6145 0.893677 15.3253 0.893677 12 0.893677Z" fill="#A8F1F8"/>
<path d="M12 6.67681C8.53012 6.67681 5.78313 9.4238 5.78313 12.8937C5.78313 16.3636 8.53012 19.1105 12 19.1105C15.4699 19.1105 18.2169 16.3636 18.2169 12.8937C18.2169 9.4238 15.4699 6.67681 12 6.67681ZM12 16.9419C9.83133 16.9419 7.95181 15.2069 7.95181 12.8937C7.95181 10.725 9.68675 8.84548 12 8.84548C14.1687 8.84548 16.0482 10.5804 16.0482 12.8937C16.0482 15.0624 14.1687 16.9419 12 16.9419Z" fill="#A8F1F8"/>
<path d="M18.3614 7.97802C19.1599 7.97802 19.8072 7.33072 19.8072 6.53223C19.8072 5.73375 19.1599 5.08645 18.3614 5.08645C17.563 5.08645 16.9157 5.73375 16.9157 6.53223C16.9157 7.33072 17.563 7.97802 18.3614 7.97802Z" fill="#A8F1F8"/>
</svg>
