<svg width="23" height="27" viewBox="0 0 23 27" fill="none" xmlns="http://www.w3.org/2000/svg">
<path d="M22.9709 6.99739C22.143 6.9974 21.3232 6.83434 20.5584 6.51753C19.7935 6.20072 19.0985 5.73636 18.5131 5.15096C17.9277 4.56556 17.4633 3.87058 17.1465 3.10571C16.8297 2.34085 16.6666 1.52106 16.6666 0.693176H12.1626V18.3301C12.1618 19.1342 11.9078 19.9176 11.4369 20.5693C10.9659 21.2211 10.3017 21.708 9.53852 21.9612C8.77532 22.2144 7.95179 22.221 7.18465 21.98C6.41751 21.739 5.74568 21.2626 5.26438 20.6185C4.78308 19.9743 4.51672 19.195 4.50306 18.391C4.4894 17.5871 4.72912 16.7992 5.18826 16.139C5.6474 15.4789 6.30265 14.98 7.06116 14.7131C7.81966 14.4462 8.64294 14.4247 9.41431 14.6518V10.2736C7.77501 10.0526 6.1073 10.3369 4.63385 11.0886C3.1604 11.8404 1.95135 13.0237 1.16815 14.4807C0.384951 15.9377 0.0648743 17.5989 0.250662 19.2425C0.436449 20.8862 1.11926 22.4341 2.20791 23.6795C3.29657 24.9248 4.73925 25.8085 6.34332 26.2123C7.94738 26.6162 9.63649 26.5211 11.1851 25.9397C12.7337 25.3583 14.068 24.3184 15.01 22.9586C15.952 21.5989 16.4567 19.9842 16.4568 18.3301L16.5875 9.41509C18.4381 10.7736 20.6747 11.5046 22.9704 11.5012L22.9709 6.99739Z" fill="#A8F1F8"/>
</svg>
