<svg width="18" height="20" viewBox="0 0 18 20" fill="none" xmlns="http://www.w3.org/2000/svg">
<path d="M17.9772 4.82777C17.3563 4.82778 16.7415 4.70549 16.1678 4.46788C15.5941 4.23027 15.0729 3.882 14.6339 3.44295C14.1948 3.00389 13.8465 2.48266 13.6089 1.90901C13.3713 1.33536 13.249 0.720526 13.249 0.0996094H9.87099V13.3273C9.87034 13.9303 9.67991 14.5179 9.32667 15.0067C8.97343 15.4955 8.47531 15.8608 7.90291 16.0506C7.33051 16.2405 6.71286 16.2454 6.13751 16.0647C5.56216 15.8839 5.05829 15.5267 4.69731 15.0436C4.33633 14.5605 4.13657 13.976 4.12632 13.373C4.11607 12.77 4.29587 12.1791 4.64022 11.684C4.98457 11.1889 5.47601 10.8147 6.04489 10.6145C6.61377 10.4144 7.23123 10.3983 7.80975 10.5686V7.28496C6.58028 7.11917 5.3295 7.33241 4.22441 7.89621C3.11932 8.46001 2.21254 9.34753 1.62514 10.4402C1.03774 11.533 0.797679 12.7789 0.93702 14.0116C1.07636 15.2444 1.58847 16.4053 2.40496 17.3393C3.22145 18.2734 4.30346 18.9361 5.50651 19.239C6.70956 19.5419 7.97639 19.4706 9.13783 19.0345C10.2993 18.5985 11.3001 17.8185 12.0065 16.7987C12.713 15.7789 13.0916 14.5679 13.0917 13.3273L13.1897 6.64104C14.5776 7.65995 16.255 8.20819 17.9768 8.20564L17.9772 4.82777Z" fill="black"/>
</svg>
